<svg width="32" height="32" viewBox="0 0 32 32" fill="none" xmlns="http://www.w3.org/2000/svg">
<path d="M16 20C18.2091 20 20 18.2091 20 16C20 13.7909 18.2091 12 16 12C13.7909 12 12 13.7909 12 16C12 18.2091 13.7909 20 16 20Z" fill="#707070"/>
<path d="M12.0003 2.6665L9.56033 5.33317H2.66699V26.6665H29.3337V5.33317H22.4403L20.0003 2.6665H12.0003ZM16.0003 22.6665C12.3203 22.6665 9.33366 19.6798 9.33366 15.9998C9.33366 12.3198 12.3203 9.33317 16.0003 9.33317C19.6803 9.33317 22.667 12.3198 22.667 15.9998C22.667 19.6798 19.6803 22.6665 16.0003 22.6665Z" fill="#707070"/>
</svg>
