<svg width="24" height="24" viewBox="0 0 24 24" fill="none" xmlns="http://www.w3.org/2000/svg">
<path fill-rule="evenodd" clip-rule="evenodd" d="M0 12.018C0 5.69654 5.052 0 12.024 0C18.84 0 24 5.58838 24 11.982C24 19.3971 17.952 24 12 24C10.032 24 7.848 23.4712 6.096 22.4377C5.484 22.0651 4.968 21.7887 4.308 22.005L1.884 22.7261C1.272 22.9184 0.72 22.4377 0.9 21.7887L1.704 19.0966C1.836 18.7241 1.812 18.3275 1.62 18.015C0.588 16.1162 0 14.0371 0 12.018ZM10.44 12.018C10.44 12.8713 11.124 13.5563 11.976 13.5683C12.828 13.5683 13.512 12.8713 13.512 12.03C13.512 11.1767 12.828 10.4917 11.976 10.4917C11.136 10.4797 10.44 11.1767 10.44 12.018ZM15.9725 12.0302C15.9725 12.8714 16.6565 13.5685 17.5085 13.5685C18.3605 13.5685 19.0445 12.8714 19.0445 12.0302C19.0445 11.1769 18.3605 10.4918 17.5085 10.4918C16.6565 10.4918 15.9725 11.1769 15.9725 12.0302ZM6.44381 13.5684C5.60381 13.5684 4.90781 12.8714 4.90781 12.0301C4.90781 11.1768 5.59181 10.4918 6.44381 10.4918C7.29581 10.4918 7.97981 11.1768 7.97981 12.0301C7.97981 12.8714 7.29581 13.5564 6.44381 13.5684Z" fill="#200E32"/>
</svg>
