<svg width="26" height="26" viewBox="0 0 26 26" fill="none" xmlns="http://www.w3.org/2000/svg">
<path d="M3.98625 22.8027L3.98576 22.8041L10.8405 22.0901C11.5539 22.2084 12.2675 22.2476 12.9812 22.2476C19.5914 22.2476 24.9998 17.4864 24.9998 11.6238L25.0998 11.6244C25.0998 11.6243 25.0998 11.6242 25.0998 11.6241C25.1375 5.69421 19.6717 0.9 13.0187 0.9H12.9809L12.9807 0.900123C6.34456 0.918289 0.9 5.70594 0.9 11.6239C0.9 14.7827 2.47129 17.7416 5.12436 19.7642L3.98625 22.8027ZM6.27155 24.8913L10.86 22.1946L4.49307 24.6083L4.42629 24.6828C4.42638 24.6828 4.42646 24.6829 4.42654 24.683C4.72342 24.9492 5.0268 25.0759 5.33845 25.0968C5.64775 25.1177 5.95557 25.0338 6.26182 24.8964L6.26207 24.8969L6.27155 24.8913ZM10.5267 20.3516L5.69646 23.2003L7.17839 19.134L7.20707 19.0553L7.13463 19.0132C4.38122 17.4153 2.60233 14.6912 2.60233 11.6237C2.60233 6.69523 7.23782 2.6738 13.0186 2.6738C18.7995 2.6738 23.435 6.69529 23.435 11.6237C23.435 16.5521 18.7995 20.5736 13.0186 20.5736H12.9528C12.1548 20.5695 11.3579 20.4914 10.597 20.3397L10.5596 20.3322L10.5267 20.3516ZM13.0186 13.2976C13.9045 13.2976 14.6208 12.5403 14.6208 11.6239C14.6208 10.7074 13.9045 9.95012 13.0186 9.95012C12.1328 9.95012 11.4164 10.7074 11.4164 11.6239C11.4164 12.5403 12.1328 13.2976 13.0186 13.2976ZM7.76062 13.2976C8.64647 13.2976 9.36282 12.5403 9.36282 11.6239C9.36282 10.7074 8.64647 9.95012 7.76062 9.95012C6.87478 9.95012 6.15842 10.7074 6.15842 11.6239C6.15842 12.5403 6.87478 13.2976 7.76062 13.2976ZM18.2769 13.2976C19.1628 13.2976 19.8791 12.5403 19.8791 11.6239C19.8791 10.7074 19.1625 9.95012 18.2769 9.95012C17.3911 9.95012 16.6747 10.7074 16.6747 11.6239C16.6747 12.5403 17.3911 13.2976 18.2769 13.2976Z" fill="#101010" stroke="#101010" stroke-width="0.2"/>
</svg>
