<svg width="18" height="18" viewBox="0 0 18 18" fill="none" xmlns="http://www.w3.org/2000/svg">
<path d="M12.075 17.25H5.925C5.7 17.25 5.55 17.175 5.4 17.025L0.975 12.6C0.825 12.525 0.75 12.3 0.75 12.075V5.925C0.75 5.7 0.825 5.55 0.975 5.4L5.4 0.975C5.475 0.825 5.7 0.75 5.925 0.75H12.15C12.375 0.75 12.525 0.825 12.675 0.975L17.1 5.4C17.175 5.475 17.25 5.7 17.25 5.925V12.15C17.25 12.375 17.175 12.525 17.025 12.675L12.6 17.1C12.525 17.175 12.3 17.25 12.075 17.25ZM6.225 15.75H11.85L15.825 11.775V6.225L11.775 2.25H6.225L2.25 6.225V11.85L6.225 15.75Z" fill="#FF8080"/>
<path d="M9 9.75C8.55 9.75 8.25 9.45 8.25 9V6C8.25 5.55 8.55 5.25 9 5.25C9.45 5.25 9.75 5.55 9.75 6V9C9.75 9.45 9.45 9.75 9 9.75Z" fill="#FF8080"/>
<path d="M9 12.75C8.775 12.75 8.625 12.675 8.475 12.525C8.325 12.375 8.25 12.225 8.25 12C8.25 11.925 8.25 11.775 8.325 11.7C8.4 11.625 8.4 11.55 8.475 11.475C8.7 11.25 9 11.175 9.3 11.325C9.375 11.325 9.375 11.325 9.45 11.4C9.45 11.4 9.525 11.475 9.6 11.475C9.675 11.55 9.75 11.625 9.75 11.7C9.75 11.775 9.75 11.925 9.75 12C9.75 12.075 9.75 12.225 9.675 12.3C9.6 12.375 9.6 12.45 9.525 12.525C9.375 12.675 9.225 12.75 9 12.75Z" fill="#FF8080"/>
</svg>
