<svg width="18" height="18" viewBox="0 0 18 18" fill="none" xmlns="http://www.w3.org/2000/svg">
<circle cx="9" cy="7.5" r="2.25" stroke="#606060" stroke-width="1.5" stroke-linecap="round" stroke-linejoin="round"/>
<path d="M14.25 7.3125H13.5H14.25ZM9 15.75L8.53021 16.3346C8.8046 16.5551 9.1954 16.5551 9.46979 16.3346L9 15.75ZM13.5 7.3125C13.5 9.14404 12.3395 11.0775 11.0478 12.6344C10.4166 13.3953 9.78333 14.0315 9.30736 14.4777C9.06985 14.7004 8.87273 14.8746 8.73624 14.9921C8.66802 15.0509 8.61504 15.0953 8.57984 15.1246C8.56224 15.1392 8.54909 15.15 8.54071 15.1568C8.53652 15.1603 8.53352 15.1627 8.53176 15.1641C8.53088 15.1648 8.5303 15.1653 8.53004 15.1655C8.52991 15.1656 8.52986 15.1656 8.52989 15.1656C8.5299 15.1656 8.52998 15.1656 8.52999 15.1655C8.53009 15.1655 8.53021 15.1654 9 15.75C9.46979 16.3346 9.46995 16.3345 9.47013 16.3344C9.47022 16.3343 9.47042 16.3341 9.47059 16.334C9.47094 16.3337 9.47136 16.3334 9.47187 16.333C9.47288 16.3321 9.47421 16.3311 9.47585 16.3297C9.47914 16.3271 9.48367 16.3234 9.48941 16.3187C9.5009 16.3093 9.51723 16.2959 9.53808 16.2786C9.57978 16.244 9.63959 16.1937 9.71493 16.1289C9.86555 15.9992 10.0786 15.8108 10.3333 15.5721C10.8417 15.0954 11.5209 14.4133 12.2022 13.5922C13.5355 11.985 15 9.69971 15 7.3125H13.5ZM9 15.75C9.46979 15.1654 9.46991 15.1655 9.47001 15.1655C9.47002 15.1656 9.4701 15.1656 9.47011 15.1656C9.47014 15.1656 9.47009 15.1656 9.46996 15.1655C9.4697 15.1653 9.46912 15.1648 9.46824 15.1641C9.46648 15.1627 9.46348 15.1603 9.45929 15.1568C9.45091 15.15 9.43776 15.1392 9.42016 15.1246C9.38496 15.0953 9.33198 15.0509 9.26376 14.9921C9.12727 14.8746 8.93015 14.7004 8.69264 14.4777C8.21667 14.0315 7.58344 13.3953 6.95222 12.6344C5.66054 11.0775 4.5 9.14404 4.5 7.3125H3C3 9.69971 4.46446 11.985 5.79778 13.5922C6.47906 14.4133 7.15833 15.0954 7.66673 15.5721C7.92141 15.8108 8.13445 15.9992 8.28507 16.1289C8.36041 16.1937 8.42022 16.244 8.46192 16.2786C8.48277 16.2959 8.4991 16.3093 8.51059 16.3187C8.51633 16.3234 8.52086 16.3271 8.52415 16.3297C8.52579 16.3311 8.52712 16.3321 8.52813 16.333C8.52864 16.3334 8.52906 16.3337 8.52941 16.334C8.52958 16.3341 8.52978 16.3343 8.52987 16.3344C8.53005 16.3345 8.53021 16.3346 9 15.75ZM4.5 7.3125C4.5 4.95625 6.48878 3 9 3V1.5C5.71223 1.5 3 4.07687 3 7.3125H4.5ZM9 3C11.5112 3 13.5 4.95625 13.5 7.3125H15C15 4.07687 12.2878 1.5 9 1.5V3Z" fill="#606060"/>
</svg>
