<svg width="24" height="24" viewBox="0 0 24 24" fill="none" xmlns="http://www.w3.org/2000/svg">
<path fill-rule="evenodd" clip-rule="evenodd" d="M2.46014 16.8193C2.23856 16.5895 2.1867 16.2447 2.33091 15.9599L3.03241 14.5745C4.69268 11.2957 8.05563 9.22905 11.7308 9.22905H12.0757C12.1009 8.68267 12.1334 8.13654 12.1731 7.59081L12.241 6.66018C12.2961 5.90335 13.14 5.48029 13.7795 5.88887C15.8771 7.22923 17.7007 8.95632 19.153 10.9781L19.6091 11.613C19.797 11.8745 19.797 12.2267 19.6091 12.4881L19.153 13.1231C17.7007 15.1448 15.8771 16.8719 13.7795 18.2123C13.14 18.6209 12.2961 18.1978 12.241 17.441L12.1731 16.5103C12.1256 15.8586 12.0886 15.2063 12.0619 14.5537C9.91207 14.4917 7.76486 14.9256 5.7915 15.8364L3.31431 16.9797C3.02447 17.1134 2.68173 17.0491 2.46014 16.8193ZM4.67839 14.698L5.16291 14.4744C7.57405 13.3616 10.2196 12.8918 12.8447 13.0934C13.227 13.1228 13.5256 13.4358 13.5369 13.819C13.5624 14.6804 13.6065 15.5414 13.6692 16.4013L13.6746 16.4757C15.3181 15.3141 16.7583 13.8857 17.9348 12.248L18.0766 12.0506L17.9348 11.8532C16.7583 10.2155 15.3181 8.78707 13.6746 7.62541L13.6692 7.69987C13.6132 8.46747 13.5721 9.23589 13.5458 10.0047C13.532 10.4087 13.2005 10.729 12.7962 10.729L11.7308 10.729C8.83352 10.729 6.16555 12.2469 4.67839 14.698Z" fill="black"/>
</svg>
