<svg width="24" height="24" viewBox="0 0 24 24" fill="none" xmlns="http://www.w3.org/2000/svg">
<path d="M11.0549 19.4754L11.0538 19.4744C8.46371 17.1257 6.37476 15.2297 4.92429 13.4564C3.48243 11.6936 2.75 10.1436 2.75 8.5C2.75 5.83421 4.83421 3.75 7.5 3.75C9.01291 3.75 10.4767 4.45795 11.429 5.57625L12 6.2468L12.571 5.57625C13.5233 4.45795 14.9871 3.75 16.5 3.75C19.1658 3.75 21.25 5.83421 21.25 8.5C21.25 10.1436 20.5176 11.6936 19.0756 13.4579C17.6251 15.2324 15.5363 17.1307 12.9464 19.4842C12.9461 19.4845 12.9459 19.4847 12.9456 19.4849L12.0019 20.3375L11.0549 19.4754Z" stroke="#606060" stroke-width="1.5"/>
</svg>
