<svg width="24" height="24" viewBox="0 0 24 24" fill="none" xmlns="http://www.w3.org/2000/svg">
<circle cx="12" cy="10" r="3" stroke="white" stroke-width="1.5" stroke-linecap="round" stroke-linejoin="round"/>
<path d="M19 9.75H18.25H19ZM12 21L11.5302 21.5846C11.8046 21.8051 12.1954 21.8051 12.4698 21.5846L12 21ZM18.25 9.75C18.25 12.2847 16.652 14.9212 14.9228 17.0055C14.0728 18.03 13.2208 18.886 12.5808 19.486C12.2613 19.7856 11.9958 20.0202 11.8114 20.1789C11.7193 20.2583 11.6475 20.3186 11.5995 20.3584C11.5755 20.3784 11.5574 20.3932 11.5457 20.4028C11.5399 20.4075 11.5356 20.411 11.533 20.4131C11.5317 20.4141 11.5308 20.4149 11.5304 20.4152C11.5301 20.4154 11.53 20.4155 11.53 20.4156C11.53 20.4156 11.53 20.4155 11.53 20.4155C11.5301 20.4155 11.5302 20.4154 12 21C12.4698 21.5846 12.47 21.5845 12.4702 21.5843C12.4703 21.5843 12.4705 21.5841 12.4707 21.5839C12.4711 21.5836 12.4716 21.5832 12.4722 21.5827C12.4734 21.5817 12.4751 21.5804 12.4771 21.5787C12.4812 21.5754 12.487 21.5707 12.4944 21.5646C12.5092 21.5525 12.5305 21.5351 12.5577 21.5125C12.6123 21.4672 12.6909 21.4011 12.7901 21.3157C12.9886 21.1448 13.27 20.896 13.6067 20.5804C14.2792 19.9499 15.1772 19.0481 16.0772 17.9633C17.848 15.8288 19.75 12.8403 19.75 9.75H18.25ZM12 21C12.4698 20.4154 12.4699 20.4155 12.47 20.4155C12.47 20.4155 12.47 20.4156 12.47 20.4156C12.47 20.4155 12.4699 20.4154 12.4696 20.4152C12.4692 20.4149 12.4683 20.4141 12.467 20.4131C12.4644 20.411 12.4601 20.4075 12.4543 20.4028C12.4426 20.3932 12.4245 20.3784 12.4005 20.3584C12.3525 20.3186 12.2807 20.2583 12.1886 20.1789C12.0042 20.0202 11.7387 19.7856 11.4192 19.486C10.7792 18.886 9.92719 18.03 9.07722 17.0055C7.34804 14.9212 5.75 12.2847 5.75 9.75H4.25C4.25 12.8403 6.15196 15.8288 7.92278 17.9633C8.82281 19.0481 9.72083 19.9499 10.3933 20.5804C10.73 20.896 11.0114 21.1448 11.2099 21.3157C11.3091 21.4011 11.3877 21.4672 11.4423 21.5125C11.4695 21.5351 11.4908 21.5525 11.5056 21.5646C11.513 21.5707 11.5188 21.5754 11.5229 21.5787C11.5249 21.5804 11.5266 21.5817 11.5278 21.5827C11.5284 21.5832 11.5289 21.5836 11.5293 21.5839C11.5295 21.5841 11.5297 21.5843 11.5298 21.5843C11.53 21.5845 11.5302 21.5846 12 21ZM5.75 9.75C5.75 6.46177 8.52228 3.75 12 3.75V2.25C7.74574 2.25 4.25 5.58239 4.25 9.75H5.75ZM12 3.75C15.4777 3.75 18.25 6.46177 18.25 9.75H19.75C19.75 5.58239 16.2543 2.25 12 2.25V3.75Z" fill="white"/>
</svg>
