<svg width="165" height="43" viewBox="0 0 165 43" fill="none" xmlns="http://www.w3.org/2000/svg">
<rect width="165" height="43" rx="21.5" fill="#242424"/>
<path d="M78.2447 21.736C78.2447 23.336 77.7701 24.6107 76.8207 25.56C75.7541 26.6907 74.3514 27.256 72.6127 27.256C70.9487 27.256 69.5407 26.68 68.3887 25.528C67.2367 24.376 66.6607 22.9573 66.6607 21.272C66.6607 19.5867 67.2367 18.168 68.3887 17.016C69.5407 15.864 70.9487 15.288 72.6127 15.288C73.4554 15.288 74.2501 15.4373 74.9967 15.736C75.7434 16.0347 76.3567 16.456 76.8367 17L75.7807 18.056C75.4287 17.6293 74.9701 17.2987 74.4047 17.064C73.8501 16.8187 73.2527 16.696 72.6127 16.696C71.3647 16.696 70.3087 17.128 69.4447 17.992C68.5914 18.8667 68.1647 19.96 68.1647 21.272C68.1647 22.584 68.5914 23.6773 69.4447 24.552C70.3087 25.416 71.3647 25.848 72.6127 25.848C73.7541 25.848 74.7034 25.528 75.4607 24.888C76.2181 24.248 76.6554 23.368 76.7727 22.248H72.6127V20.872H78.1647C78.2181 21.1707 78.2447 21.4587 78.2447 21.736ZM82.8991 27.256C81.7471 27.256 80.7978 26.8613 80.0511 26.072C79.3045 25.2827 78.9311 24.2853 78.9311 23.08C78.9311 21.8853 79.2938 20.8933 80.0191 20.104C80.7445 19.304 81.6725 18.904 82.8031 18.904C83.9658 18.904 84.8885 19.2827 85.5711 20.04C86.2645 20.7867 86.6111 21.8373 86.6111 23.192L86.5951 23.352H80.4351C80.4565 24.12 80.7125 24.7387 81.2031 25.208C81.6938 25.6773 82.2805 25.912 82.9631 25.912C83.9018 25.912 84.6378 25.4427 85.1711 24.504L86.4831 25.144C86.1311 25.8053 85.6405 26.3227 85.0111 26.696C84.3925 27.0693 83.6885 27.256 82.8991 27.256ZM80.5471 22.136H85.0431C85.0005 21.592 84.7765 21.144 84.3711 20.792C83.9765 20.4293 83.4431 20.248 82.7711 20.248C82.2165 20.248 81.7365 20.4187 81.3311 20.76C80.9365 21.1013 80.6751 21.56 80.5471 22.136ZM90.5069 27.128C89.8669 27.128 89.3335 26.9307 88.9069 26.536C88.4909 26.1413 88.2775 25.592 88.2669 24.888V20.504H86.8909V19.16H88.2669V16.76H89.7389V19.16H91.6589V20.504H89.7389V24.408C89.7389 24.9307 89.8402 25.288 90.0429 25.48C90.2455 25.6613 90.4749 25.752 90.7309 25.752C90.8482 25.752 90.9602 25.7413 91.0669 25.72C91.1842 25.688 91.2909 25.6507 91.3869 25.608L91.8509 26.92C91.4669 27.0587 91.0189 27.128 90.5069 27.128ZM99.0387 27.128C98.3987 27.128 97.8654 26.9307 97.4387 26.536C97.0227 26.1413 96.8094 25.592 96.7987 24.888V20.504H95.4227V19.16H96.7987V16.76H98.2707V19.16H100.191V20.504H98.2707V24.408C98.2707 24.9307 98.3721 25.288 98.5747 25.48C98.7774 25.6613 99.0067 25.752 99.2627 25.752C99.3801 25.752 99.4921 25.7413 99.5987 25.72C99.7161 25.688 99.8227 25.6507 99.9187 25.608L100.383 26.92C99.9987 27.0587 99.5507 27.128 99.0387 27.128ZM101.349 15.544H102.821V19.16L102.757 20.248H102.821C103.045 19.864 103.386 19.544 103.845 19.288C104.314 19.032 104.8 18.904 105.301 18.904C106.261 18.904 106.997 19.1813 107.509 19.736C108.032 20.28 108.293 21.0587 108.293 22.072V27H106.821V22.36C106.821 20.952 106.197 20.248 104.949 20.248C104.352 20.248 103.845 20.4987 103.429 21C103.024 21.4907 102.821 22.0667 102.821 22.728V27H101.349V15.544ZM113.221 27.256C112.069 27.256 111.12 26.8613 110.373 26.072C109.626 25.2827 109.253 24.2853 109.253 23.08C109.253 21.8853 109.616 20.8933 110.341 20.104C111.066 19.304 111.994 18.904 113.125 18.904C114.288 18.904 115.21 19.2827 115.893 20.04C116.586 20.7867 116.933 21.8373 116.933 23.192L116.917 23.352H110.757C110.778 24.12 111.034 24.7387 111.525 25.208C112.016 25.6773 112.602 25.912 113.285 25.912C114.224 25.912 114.96 25.4427 115.493 24.504L116.805 25.144C116.453 25.8053 115.962 26.3227 115.333 26.696C114.714 27.0693 114.01 27.256 113.221 27.256ZM110.869 22.136H115.365C115.322 21.592 115.098 21.144 114.693 20.792C114.298 20.4293 113.765 20.248 113.093 20.248C112.538 20.248 112.058 20.4187 111.653 20.76C111.258 21.1013 110.997 21.56 110.869 22.136ZM122.227 24.6C122.227 24.984 122.387 25.304 122.707 25.56C123.037 25.816 123.421 25.944 123.859 25.944C124.477 25.944 125.027 25.7147 125.507 25.256C125.997 24.7973 126.243 24.2587 126.243 23.64C125.784 23.2773 125.144 23.096 124.323 23.096C123.725 23.096 123.224 23.24 122.819 23.528C122.424 23.816 122.227 24.1733 122.227 24.6ZM124.131 18.904C125.219 18.904 126.077 19.1973 126.707 19.784C127.336 20.36 127.651 21.1547 127.651 22.168V27H126.243V25.912H126.179C125.571 26.808 124.76 27.256 123.747 27.256C122.883 27.256 122.157 27 121.571 26.488C120.995 25.976 120.707 25.336 120.707 24.568C120.707 23.7573 121.011 23.112 121.619 22.632C122.237 22.152 123.059 21.912 124.083 21.912C124.957 21.912 125.677 22.072 126.243 22.392V22.056C126.243 21.544 126.04 21.112 125.635 20.76C125.229 20.3973 124.755 20.216 124.211 20.216C123.389 20.216 122.739 20.5627 122.259 21.256L120.963 20.44C121.677 19.416 122.733 18.904 124.131 18.904ZM132.831 25.912C133.535 25.912 134.127 25.6453 134.607 25.112C135.087 24.5893 135.327 23.912 135.327 23.08C135.327 22.2587 135.087 21.5813 134.607 21.048C134.127 20.5147 133.535 20.248 132.831 20.248C132.116 20.248 131.519 20.5147 131.039 21.048C130.57 21.5813 130.335 22.2587 130.335 23.08C130.335 23.912 130.57 24.5947 131.039 25.128C131.519 25.6507 132.116 25.912 132.831 25.912ZM133.071 27.256C132.495 27.256 131.967 27.1333 131.487 26.888C131.018 26.6427 130.655 26.3173 130.399 25.912H130.335L130.399 27V30.456H128.927V19.16H130.335V20.248H130.399C130.655 19.8427 131.018 19.5173 131.487 19.272C131.967 19.0267 132.495 18.904 133.071 18.904C134.106 18.904 134.98 19.3093 135.695 20.12C136.431 20.9413 136.799 21.928 136.799 23.08C136.799 24.2427 136.431 25.2293 135.695 26.04C134.98 26.8507 134.106 27.256 133.071 27.256ZM141.511 25.912C142.215 25.912 142.807 25.6453 143.287 25.112C143.767 24.5893 144.007 23.912 144.007 23.08C144.007 22.2587 143.767 21.5813 143.287 21.048C142.807 20.5147 142.215 20.248 141.511 20.248C140.796 20.248 140.199 20.5147 139.719 21.048C139.25 21.5813 139.015 22.2587 139.015 23.08C139.015 23.912 139.25 24.5947 139.719 25.128C140.199 25.6507 140.796 25.912 141.511 25.912ZM141.751 27.256C141.175 27.256 140.647 27.1333 140.167 26.888C139.698 26.6427 139.335 26.3173 139.079 25.912H139.015L139.079 27V30.456H137.607V19.16H139.015V20.248H139.079C139.335 19.8427 139.698 19.5173 140.167 19.272C140.647 19.0267 141.175 18.904 141.751 18.904C142.786 18.904 143.66 19.3093 144.375 20.12C145.111 20.9413 145.479 21.928 145.479 23.08C145.479 24.2427 145.111 25.2293 144.375 26.04C143.66 26.8507 142.786 27.256 141.751 27.256Z" fill="white"/>
<path d="M34.6647 27.0275C34.3774 27.6563 34.0374 28.2352 33.6434 28.7674C33.1064 29.4929 32.6667 29.9951 32.3279 30.274C31.8026 30.7318 31.2398 30.9662 30.6371 30.9796C30.2045 30.9796 29.6827 30.8629 29.0753 30.6262C28.466 30.3907 27.906 30.274 27.394 30.274C26.857 30.274 26.281 30.3907 25.665 30.6262C25.048 30.8629 24.551 30.9862 24.171 30.9985C23.5931 31.0218 23.017 30.7807 22.442 30.274C22.075 29.9707 21.616 29.4507 21.0661 28.7141C20.4761 27.9274 19.991 27.0152 19.611 25.9753C19.204 24.852 19 23.7642 19 22.7112C19 21.5049 19.2751 20.4644 19.826 19.5926C20.259 18.8923 20.8351 18.3398 21.5561 17.9343C22.277 17.5288 23.056 17.3221 23.895 17.3089C24.354 17.3089 24.956 17.4434 25.704 17.7079C26.45 17.9732 26.9289 18.1078 27.1389 18.1078C27.2959 18.1078 27.828 17.9504 28.73 17.6368C29.583 17.3459 30.3029 17.2254 30.8927 17.2729C32.4908 17.3951 33.6915 17.9921 34.49 19.0676C33.0607 19.8883 32.3536 21.0377 32.3677 22.5122C32.3806 23.6607 32.8203 24.6164 33.6844 25.3753C34.0761 25.7275 34.5134 25.9997 35 26.1931C34.8945 26.483 34.7831 26.7608 34.6647 27.0275ZM30.9994 13.3601C30.9994 14.2603 30.6524 15.1008 29.9606 15.8788C29.1258 16.8037 28.116 17.3381 27.021 17.2538C27.0063 17.1406 26.999 17.0267 26.9989 16.9127C26.9989 16.0485 27.396 15.1236 28.101 14.3674C28.453 13.9845 28.9006 13.6662 29.4435 13.4122C29.9852 13.162 30.4976 13.0237 30.9795 13C30.9936 13.1203 30.9994 13.2407 30.9994 13.3601Z" fill="white"/>
<g clip-path="url(#clip0_578_2124)">
<path d="M41.6375 18.8305C41.3101 18.8305 41.0323 18.9386 40.804 19.1549C40.5757 19.3712 40.4615 19.6308 40.4615 19.9337V24.5852C40.4615 24.8957 40.5756 25.1586 40.804 25.3749C41.0323 25.5912 41.3101 25.6994 41.6375 25.6994C41.9646 25.6994 42.2407 25.5913 42.4655 25.3749C42.6898 25.1586 42.8023 24.8957 42.8023 24.5852V19.9337C42.8023 19.6308 42.6881 19.3712 42.4597 19.1549C42.2314 18.9386 41.9572 18.8305 41.6375 18.8305Z" fill="white"/>
<path d="M51.092 14.6549L51.9027 13.2381C51.956 13.1443 51.937 13.0723 51.8458 13.0218C51.7467 12.9782 51.6706 13.0003 51.6174 13.0865L50.7954 14.5147C50.0721 14.2117 49.307 14.0599 48.5002 14.0599C47.6933 14.0599 46.9282 14.2117 46.2051 14.5147L45.383 13.0865C45.3296 13.0003 45.2535 12.9783 45.1547 13.0218C45.0633 13.0726 45.0443 13.1443 45.0978 13.2381L45.9085 14.6549C45.0864 15.0521 44.4317 15.6052 43.9445 16.3155C43.4574 17.0262 43.2137 17.8028 43.2137 18.6468H53.7753C53.7753 17.803 53.5316 17.0264 53.0445 16.3155C52.5573 15.6052 51.9063 15.0521 51.092 14.6549ZM46.4049 16.7157C46.3172 16.799 46.2125 16.8404 46.0907 16.8404C45.9688 16.8404 45.8662 16.799 45.7825 16.7157C45.6988 16.6328 45.657 16.534 45.657 16.4183C45.657 16.303 45.6988 16.204 45.7825 16.1209C45.8662 16.0381 45.969 15.9967 46.0907 15.9967C46.2125 15.9967 46.3172 16.0381 46.4049 16.1209C46.4923 16.2042 46.5363 16.303 46.5363 16.4183C46.536 16.5338 46.4921 16.6328 46.4049 16.7157ZM51.2175 16.7157C51.1337 16.799 51.0308 16.8404 50.9093 16.8404C50.7873 16.8404 50.6826 16.799 50.5951 16.7157C50.5075 16.6328 50.4638 16.534 50.4638 16.4183C50.4638 16.303 50.5075 16.204 50.5951 16.1209C50.6826 16.0381 50.7873 15.9967 50.9093 15.9967C51.031 15.9967 51.1336 16.0381 51.2175 16.1209C51.3013 16.2042 51.3431 16.303 51.3431 16.4183C51.3431 16.5338 51.3012 16.6328 51.2175 16.7157Z" fill="white"/>
<path d="M43.2589 26.2402C43.2589 26.5723 43.3807 26.8533 43.6241 27.084C43.8678 27.3147 44.1645 27.43 44.5148 27.43H45.3598L45.3713 29.8858C45.3713 30.1959 45.4855 30.4592 45.7138 30.6755C45.9421 30.8919 46.2163 31 46.5359 31C46.8631 31 47.141 30.8919 47.3694 30.6755C47.5977 30.4592 47.7119 30.1959 47.7119 29.8858V27.4302H49.2875V29.8858C49.2875 30.1959 49.4017 30.4592 49.63 30.6755C49.8584 30.8919 50.1361 31 50.4635 31C50.7906 31 51.0686 30.8919 51.2969 30.6755C51.5253 30.4592 51.6394 30.1959 51.6394 29.8858V27.4302H52.4958C52.8383 27.4302 53.1312 27.3148 53.3751 27.0842C53.6185 26.8535 53.7403 26.5725 53.7403 26.2404V19.0358H43.2589V26.2402Z" fill="white"/>
<path d="M55.3624 18.8305C55.0425 18.8305 54.7686 18.937 54.5402 19.1496C54.3119 19.3625 54.1978 19.624 54.1978 19.9337V24.5852C54.1978 24.8957 54.3119 25.1586 54.5402 25.3749C54.7686 25.5913 55.0428 25.6994 55.3624 25.6994C55.6895 25.6994 55.9675 25.5913 56.1958 25.3749C56.4242 25.1586 56.5383 24.8957 56.5383 24.5852V19.9337C56.5383 19.624 56.4242 19.3625 56.1958 19.1496C55.9675 18.937 55.6895 18.8305 55.3624 18.8305Z" fill="white"/>
</g>
<defs>
<clipPath id="clip0_578_2124">
<rect width="19" height="18" fill="white" transform="translate(39 13)"/>
</clipPath>
</defs>
</svg>
