<svg width="24" height="24" viewBox="0 0 24 24" fill="none" xmlns="http://www.w3.org/2000/svg">
<path fill-rule="evenodd" clip-rule="evenodd" d="M1.99988 12.0001C1.99988 6.48009 6.46988 2.00009 11.9999 2.00009C17.5199 2.00009 21.9999 6.48009 21.9999 12.0001C21.9999 17.5301 17.5199 22.0001 11.9999 22.0001C6.46988 22.0001 1.99988 17.5301 1.99988 12.0001ZM14.2299 13.8301L15.8499 8.71009C15.9599 8.36009 15.6399 8.03009 15.2899 8.14009L10.1699 9.74009C9.95988 9.81009 9.78988 9.97009 9.72988 10.1801L8.12988 15.3101C8.01988 15.6501 8.34988 15.9801 8.68988 15.8701L13.7899 14.2701C13.9999 14.2101 14.1699 14.0401 14.2299 13.8301Z" fill="#200E32"/>
</svg>
